<mxfile host="app.diagrams.net" modified="2021-05-12T06:17:43.463Z" agent="5.0 (Windows NT 10.0; Win64; x64) AppleWebKit/537.36 (KHTML, like Gecko) Chrome/90.0.4430.93 Safari/537.36 Edg/90.0.818.56" etag="4Oy7e5Ee1pG2Du5dag4s" version="14.6.12" type="github">
  <diagram id="h42IXfRm_tYqdIMDvhfR" name="第 1 页">
    <mxGraphModel dx="996" dy="616" grid="1" gridSize="10" guides="1" tooltips="1" connect="1" arrows="1" fold="1" page="1" pageScale="1" pageWidth="827" pageHeight="1169" math="0" shadow="0">
      <root>
        <mxCell id="0" />
        <mxCell id="1" parent="0" />
      </root>
    </mxGraphModel>
  </diagram>
</mxfile>
